<svg xmlns="http://www.w3.org/2000/svg" viewBox="0 0 64 43"><defs><clipPath id="a"><path d="M0 0h64v43H0z" style="fill:#000;stroke:#000"/></clipPath></defs><g style="clip-path:url(#a)"><path d="M48.944 43.559h-8.692V6.926h8.692ZM37.119 25.243a15.1 15.1 0 1 1-15.1-15.1 15.1 15.1 0 0 1 15.1 15.1m-10.521 0a4.575 4.575 0 1 0-4.575 4.575 4.575 4.575 0 0 0 4.577-4.575Zm44.331-9.174h-5.78l-3.386 3.386-3.386-3.386H52.6v5.87l3.34 3.34-3.34 3.341v5.79h5.85l3.309-3.31 3.308 3.308h5.861v-5.783l-3.341-3.341 3.341-3.345Z" style="fill:#000" transform="translate(-6.928 -3.909)"/></g></svg>